<svg width="825" height="213" viewBox="0 0 825 213" fill="none" xmlns="http://www.w3.org/2000/svg">
<path d="M312.148 88.8363C312.148 80.3243 313.82 72.775 317.164 66.1883C320.61 59.6017 325.22 54.535 330.996 50.9883C336.874 47.4417 343.41 45.6683 350.604 45.6683C356.887 45.6683 362.359 46.935 367.02 49.4683C371.783 52.0017 375.583 55.1937 378.42 59.0443V47.0363H399.852V131.244H378.42V118.932C375.684 122.884 371.884 126.178 367.02 128.812C362.258 131.346 356.735 132.612 350.452 132.612C343.359 132.612 336.874 130.788 330.996 127.14C325.22 123.492 320.61 118.375 317.164 111.788C313.82 105.1 312.148 97.4497 312.148 88.8363ZM378.42 89.1403C378.42 83.9723 377.407 79.5643 375.38 75.9163C373.354 72.167 370.618 69.3297 367.172 67.4043C363.727 65.3777 360.028 64.3643 356.076 64.3643C352.124 64.3643 348.476 65.327 345.132 67.2523C341.788 69.1777 339.052 72.015 336.924 75.7643C334.898 79.4123 333.884 83.7697 333.884 88.8363C333.884 93.903 334.898 98.3617 336.924 102.212C339.052 105.962 341.788 108.85 345.132 110.876C348.578 112.903 352.226 113.916 356.076 113.916C360.028 113.916 363.727 112.954 367.172 111.028C370.618 109.002 373.354 106.164 375.38 102.516C377.407 98.767 378.42 94.3083 378.42 89.1403Z" fill="black"/>
<path d="M302.088 87.3163C302.088 90.3563 301.885 93.0923 301.48 95.5243H239.92C240.427 101.604 242.555 106.367 246.304 109.812C250.053 113.258 254.664 114.98 260.136 114.98C268.04 114.98 273.664 111.586 277.008 104.796H299.96C297.528 112.903 292.867 119.591 285.976 124.86C279.085 130.028 270.624 132.612 260.592 132.612C252.485 132.612 245.189 130.839 238.704 127.292C232.32 123.644 227.304 118.527 223.656 111.94C220.109 105.354 218.336 97.7537 218.336 89.1403C218.336 80.4257 220.109 72.775 223.656 66.1883C227.203 59.6017 232.168 54.535 238.552 50.9883C244.936 47.4417 252.283 45.6683 260.592 45.6683C268.597 45.6683 275.741 47.391 282.024 50.8363C288.408 54.2817 293.323 59.1963 296.768 65.5803C300.315 71.863 302.088 79.1083 302.088 87.3163ZM280.048 81.2363C279.947 75.7643 277.971 71.407 274.12 68.1643C270.269 64.8203 265.557 63.1483 259.984 63.1483C254.715 63.1483 250.256 64.7697 246.608 68.0123C243.061 71.1537 240.883 75.5617 240.072 81.2363H280.048Z" fill="black"/>
<path d="M115.32 88.8363C115.32 80.3243 116.992 72.775 120.336 66.1883C123.782 59.6017 128.443 54.535 134.32 50.9883C140.198 47.4417 146.734 45.6683 153.928 45.6683C159.4 45.6683 164.619 46.8843 169.584 49.3163C174.55 51.647 178.502 54.7883 181.44 58.7403V18.7643H203.024V131.244H181.44V118.78C178.806 122.935 175.107 126.279 170.344 128.812C165.582 131.346 160.059 132.612 153.776 132.612C146.683 132.612 140.198 130.788 134.32 127.14C128.443 123.492 123.782 118.375 120.336 111.788C116.992 105.1 115.32 97.4497 115.32 88.8363ZM181.592 89.1403C181.592 83.9723 180.579 79.5643 178.552 75.9163C176.526 72.167 173.79 69.3297 170.344 67.4043C166.899 65.3777 163.2 64.3643 159.248 64.3643C155.296 64.3643 151.648 65.327 148.304 67.2523C144.96 69.1777 142.224 72.015 140.096 75.7643C138.07 79.4123 137.056 83.7697 137.056 88.8363C137.056 93.903 138.07 98.3617 140.096 102.212C142.224 105.962 144.96 108.85 148.304 110.876C151.75 112.903 155.398 113.916 159.248 113.916C163.2 113.916 166.899 112.954 170.344 111.028C173.79 109.002 176.526 106.164 178.552 102.516C180.579 98.767 181.592 94.3083 181.592 89.1403Z" fill="black"/>
<path d="M99.7678 47.0364V131.244H78.4878V47.0364H99.7678Z" fill="black"/>
<path fill-rule="evenodd" clip-rule="evenodd" d="M100.005 28.7087C97.0248 25.8832 93.2587 22.6224 88.6721 18.7946C86.552 17.0252 86.2444 13.876 87.9998 11.7444C89.7553 9.61273 92.9091 9.30594 95.0294 11.075C99.708 14.9787 103.679 18.4123 106.885 21.4519C110.859 25.2198 114.028 28.7189 115.833 32.0487C117.751 35.587 118.494 39.7188 116.114 43.6527C114.9 45.6591 113.062 47.2454 110.937 48.5594C108.588 50.0117 105.598 48.7781 104.5 46.2444C103.402 43.7106 104.741 40.988 106.861 39.2178C107.247 38.8952 107.456 38.6445 107.558 38.4767C107.609 38.3914 107.609 38.3822 107.605 38.3312C107.605 38.3264 107.604 38.3213 107.604 38.3156C107.595 38.1631 107.519 37.6946 107.042 36.815C106.035 34.9573 103.859 32.3627 100.005 28.7087ZM57.2258 34.1998C57.6741 33.2885 58.2288 32.4195 58.8247 31.6187C60.4732 29.4034 63.6913 29.6576 65.4998 31.7444L67.3868 33.9217C68.1532 34.8059 68.045 36.1377 67.2899 37.0317C66.8813 37.5155 67.0283 38.2309 67.5634 38.5695C68.5002 39.1622 69.4175 39.7261 70.2625 40.2357C72.2697 41.4463 73.0053 44.0346 71.867 46.0836L71.4999 46.7444C70.1589 49.1583 67.1175 50.024 64.7562 48.5922C63.1928 47.6442 61.4305 46.5407 59.7263 45.4046C57.6543 44.0232 56.3621 41.9565 56.1227 39.5463C55.9109 37.4128 56.5738 35.5253 57.2258 34.1998Z" fill="black"/>
<rect x="81.0981" width="17" height="38.3234" transform="rotate(40.9125 81.0981 0)" fill="#FF0B0B"/>
<rect width="12.6508" height="13.5358" transform="matrix(-0.755711 -0.654905 -0.654905 0.755711 42 77.2443)" fill="#1885C2"/>
<rect x="11.4912" y="28.2443" width="16.3993" height="17.5464" transform="rotate(40.9125 11.4912 28.2443)" fill="#FF0B0B"/>
<path d="M806.082 65.1324V105.868C806.082 108.706 806.741 110.783 808.058 112.1C809.477 113.316 811.808 113.924 815.05 113.924H824.93V131.86H811.554C793.618 131.86 784.65 123.146 784.65 105.716V65.1324H774.618V47.6524H784.65V26.8284H806.082V47.6524H824.93V65.1324H806.082Z" fill="black"/>
<path d="M672.819 89.4524C672.819 80.9404 674.491 73.391 677.835 66.8044C681.28 60.2177 685.891 55.151 691.667 51.6044C697.544 48.0577 704.08 46.2844 711.275 46.2844C717.558 46.2844 723.03 47.551 727.691 50.0844C732.454 52.6177 736.254 55.8097 739.091 59.6604V47.6524H760.523V131.86H739.091V119.548C736.355 123.5 732.555 126.794 727.691 129.428C722.928 131.962 717.406 133.228 711.123 133.228C704.03 133.228 697.544 131.404 691.667 127.756C685.891 124.108 681.28 118.991 677.835 112.404C674.491 105.716 672.819 98.0657 672.819 89.4524ZM739.091 89.7564C739.091 84.5884 738.078 80.1804 736.051 76.5324C734.024 72.783 731.288 69.9457 727.843 68.0204C724.398 65.9937 720.699 64.9804 716.747 64.9804C712.795 64.9804 709.147 65.943 705.803 67.8684C702.459 69.7937 699.723 72.631 697.595 76.3804C695.568 80.0284 694.555 84.3857 694.555 89.4524C694.555 94.519 695.568 98.9777 697.595 102.828C699.723 106.578 702.459 109.466 705.803 111.492C709.248 113.519 712.896 114.532 716.747 114.532C720.699 114.532 724.398 113.57 727.843 111.644C731.288 109.618 734.024 106.78 736.051 103.132C738.078 99.383 739.091 94.9244 739.091 89.7564Z" fill="black"/>
<path d="M644.137 65.1324V105.868C644.137 108.706 644.796 110.783 646.113 112.1C647.532 113.316 649.862 113.924 653.105 113.924H662.985V131.86H649.609C631.673 131.86 622.705 123.146 622.705 105.716V65.1324H612.673V47.6524H622.705V26.8284H644.137V47.6524H662.985V65.1324H644.137Z" fill="black"/>
<path d="M563.368 132.924C555.971 132.924 549.283 131.658 543.304 129.124C537.427 126.591 532.765 122.943 529.32 118.18C525.875 113.418 524.101 107.794 524 101.308H546.8C547.104 105.666 548.624 109.111 551.36 111.644C554.197 114.178 558.048 115.444 562.912 115.444C567.877 115.444 571.779 114.279 574.616 111.948C577.453 109.516 578.872 106.375 578.872 102.524C578.872 99.383 577.909 96.799 575.984 94.7723C574.059 92.7457 571.627 91.175 568.688 90.0603C565.851 88.8443 561.899 87.527 556.832 86.1083C549.941 84.0817 544.317 82.1057 539.96 80.1803C535.704 78.1537 532.005 75.1643 528.864 71.2123C525.824 67.159 524.304 61.7883 524.304 55.1003C524.304 48.8177 525.875 43.3457 529.016 38.6843C532.157 34.023 536.565 30.4763 542.24 28.0443C547.915 25.511 554.4 24.2443 561.696 24.2443C572.64 24.2443 581.507 26.9297 588.296 32.3003C595.187 37.5697 598.987 44.967 599.696 54.4923H576.288C576.085 50.8443 574.515 47.855 571.576 45.5243C568.739 43.0923 564.939 41.8763 560.176 41.8763C556.021 41.8763 552.677 42.9403 550.144 45.0683C547.712 47.1963 546.496 50.287 546.496 54.3403C546.496 57.1777 547.408 59.559 549.232 61.4843C551.157 63.3083 553.488 64.8283 556.224 66.0443C559.061 67.159 563.013 68.4763 568.08 69.9963C574.971 72.023 580.595 74.0497 584.952 76.0763C589.309 78.103 593.059 81.143 596.2 85.1963C599.341 89.2497 600.912 94.5697 600.912 101.156C600.912 106.831 599.443 112.1 596.504 116.964C593.565 121.828 589.259 125.73 583.584 128.668C577.909 131.506 571.171 132.924 563.368 132.924Z" fill="black"/>
<path fill-rule="evenodd" clip-rule="evenodd" d="M462.333 52.2443L482.333 72.2443H498V83.3554H482.444L462.383 103.417L454.526 95.5602L472.231 77.8554L454.477 60.1011L462.333 52.2443ZM464.393 77.8554L458.893 83.3554H437V72.2443H458.782L464.393 77.8554Z" fill="#FA8484"/>
<path d="M820.157 199.357C818.714 199.357 817.518 198.966 816.568 198.184C815.656 197.368 815.201 196.365 815.201 195.175C815.201 193.985 815.656 192.999 816.568 192.217C817.518 191.401 818.714 190.993 820.157 190.993C821.563 190.993 822.721 191.401 823.633 192.217C824.544 192.999 825 193.985 825 195.175C825 196.365 824.544 197.368 823.633 198.184C822.721 198.966 821.563 199.357 820.157 199.357Z" fill="black"/>
<path d="M797.658 199.459C795.075 199.459 792.758 199.051 790.707 198.235C788.656 197.385 787.023 196.246 785.807 194.818C784.63 193.39 783.984 191.809 783.87 190.075H791.903C792.055 191.163 792.644 192.064 793.669 192.778C794.733 193.492 796.043 193.849 797.601 193.849C799.12 193.849 800.297 193.577 801.133 193.033C802.006 192.489 802.443 191.792 802.443 190.942C802.443 190.024 801.912 189.344 800.848 188.902C799.822 188.426 798.17 187.916 795.891 187.372C793.536 186.862 791.599 186.335 790.08 185.791C788.599 185.247 787.307 184.414 786.206 183.292C785.143 182.17 784.611 180.657 784.611 178.753C784.611 177.189 785.105 175.761 786.092 174.469C787.118 173.177 788.561 172.157 790.422 171.409C792.321 170.661 794.543 170.287 797.088 170.287C800.848 170.287 803.849 171.137 806.09 172.837C808.33 174.503 809.565 176.764 809.793 179.62H802.158C802.044 178.498 801.513 177.614 800.563 176.968C799.652 176.288 798.417 175.948 796.86 175.948C795.417 175.948 794.296 176.186 793.498 176.662C792.739 177.138 792.359 177.801 792.359 178.651C792.359 179.603 792.891 180.334 793.954 180.844C795.018 181.32 796.67 181.813 798.911 182.323C801.19 182.833 803.07 183.36 804.551 183.904C806.033 184.448 807.305 185.298 808.368 186.454C809.47 187.576 810.04 189.072 810.078 190.942C810.078 192.574 809.565 194.036 808.539 195.328C807.552 196.62 806.108 197.64 804.209 198.388C802.348 199.102 800.164 199.459 797.658 199.459Z" fill="black"/>
<path d="M744.916 184.771C744.916 181.915 745.543 179.382 746.796 177.172C748.088 174.962 749.816 173.262 751.981 172.072C754.184 170.882 756.633 170.287 759.33 170.287C761.685 170.287 763.736 170.712 765.483 171.562C767.268 172.412 768.693 173.483 769.756 174.775V170.746H777.789V199H769.756V194.869C768.731 196.195 767.306 197.3 765.483 198.184C763.698 199.034 761.628 199.459 759.273 199.459C756.614 199.459 754.184 198.847 751.981 197.623C749.816 196.399 748.088 194.682 746.796 192.472C745.543 190.228 744.916 187.661 744.916 184.771ZM769.756 184.873C769.756 183.139 769.376 181.66 768.617 180.436C767.857 179.178 766.832 178.226 765.54 177.58C764.249 176.9 762.862 176.56 761.381 176.56C759.9 176.56 758.533 176.883 757.279 177.529C756.026 178.175 755 179.127 754.203 180.385C753.443 181.609 753.063 183.071 753.063 184.771C753.063 186.471 753.443 187.967 754.203 189.259C755 190.517 756.026 191.486 757.279 192.166C758.571 192.846 759.938 193.186 761.381 193.186C762.862 193.186 764.249 192.863 765.54 192.217C766.832 191.537 767.857 190.585 768.617 189.361C769.376 188.103 769.756 186.607 769.756 184.873Z" fill="black"/>
<path d="M741.145 184.261C741.145 185.281 741.069 186.199 740.917 187.015H717.843C718.033 189.055 718.831 190.653 720.236 191.809C721.641 192.965 723.369 193.543 725.42 193.543C728.383 193.543 730.491 192.404 731.744 190.126H740.347C739.436 192.846 737.689 195.09 735.106 196.858C732.523 198.592 729.352 199.459 725.591 199.459C722.553 199.459 719.818 198.864 717.387 197.674C714.994 196.45 713.114 194.733 711.747 192.523C710.418 190.313 709.753 187.763 709.753 184.873C709.753 181.949 710.418 179.382 711.747 177.172C713.076 174.962 714.937 173.262 717.33 172.072C719.723 170.882 722.477 170.287 725.591 170.287C728.592 170.287 731.27 170.865 733.625 172.021C736.017 173.177 737.86 174.826 739.151 176.968C740.48 179.076 741.145 181.507 741.145 184.261ZM732.884 182.221C732.846 180.385 732.105 178.923 730.662 177.835C729.219 176.713 727.452 176.152 725.363 176.152C723.388 176.152 721.717 176.696 720.35 177.784C719.021 178.838 718.204 180.317 717.9 182.221H732.884Z" fill="black"/>
<path d="M671.141 184.771C671.141 181.915 671.767 179.382 673.021 177.172C674.312 174.962 676.059 173.262 678.262 172.072C680.465 170.882 682.915 170.287 685.612 170.287C687.663 170.287 689.619 170.695 691.48 171.511C693.341 172.293 694.822 173.347 695.924 174.673V161.26H704.014V199H695.924V194.818C694.936 196.212 693.55 197.334 691.765 198.184C689.98 199.034 687.91 199.459 685.555 199.459C682.896 199.459 680.465 198.847 678.262 197.623C676.059 196.399 674.312 194.682 673.021 192.472C671.767 190.228 671.141 187.661 671.141 184.771ZM695.981 184.873C695.981 183.139 695.601 181.66 694.841 180.436C694.082 179.178 693.056 178.226 691.765 177.58C690.473 176.9 689.087 176.56 687.606 176.56C686.124 176.56 684.757 176.883 683.504 177.529C682.25 178.175 681.225 179.127 680.427 180.385C679.668 181.609 679.288 183.071 679.288 184.771C679.288 186.471 679.668 187.967 680.427 189.259C681.225 190.517 682.25 191.486 683.504 192.166C684.795 192.846 686.162 193.186 687.606 193.186C689.087 193.186 690.473 192.863 691.765 192.217C693.056 191.537 694.082 190.585 694.841 189.361C695.601 188.103 695.981 186.607 695.981 184.873Z" fill="black"/>
<path d="M661.38 167.38C659.975 167.38 658.797 166.989 657.848 166.207C656.936 165.391 656.48 164.388 656.48 163.198C656.48 162.008 656.936 161.022 657.848 160.24C658.797 159.424 659.975 159.016 661.38 159.016C662.785 159.016 663.944 159.424 664.855 160.24C665.805 161.022 666.28 162.008 666.28 163.198C666.28 164.388 665.805 165.391 664.855 166.207C663.944 166.989 662.785 167.38 661.38 167.38ZM665.311 170.746V199H657.335V170.746H665.311Z" fill="black"/>
<path d="M613.123 174.826C614.149 173.534 615.554 172.463 617.339 171.613C619.162 170.729 621.232 170.287 623.549 170.287C626.246 170.287 628.677 170.882 630.842 172.072C633.045 173.262 634.773 174.962 636.026 177.172C637.318 179.348 637.963 181.881 637.963 184.771C637.963 187.661 637.318 190.228 636.026 192.472C634.773 194.682 633.045 196.399 630.842 197.623C628.677 198.847 626.246 199.459 623.549 199.459C621.232 199.459 619.181 199.034 617.396 198.184C615.649 197.334 614.225 196.263 613.123 194.971V212.464H605.147V170.746H613.123V174.826ZM629.816 184.771C629.816 183.071 629.417 181.609 628.62 180.385C627.86 179.127 626.835 178.175 625.543 177.529C624.29 176.883 622.922 176.56 621.441 176.56C619.998 176.56 618.631 176.9 617.339 177.58C616.086 178.226 615.06 179.178 614.263 180.436C613.503 181.694 613.123 183.173 613.123 184.873C613.123 186.573 613.503 188.052 614.263 189.31C615.06 190.568 616.086 191.537 617.339 192.217C618.631 192.863 619.998 193.186 621.441 193.186C622.922 193.186 624.29 192.846 625.543 192.166C626.835 191.486 627.86 190.517 628.62 189.259C629.417 188.001 629.816 186.505 629.816 184.771Z" fill="black"/>
<path d="M597.277 170.746V199H589.244V195.43C588.218 196.654 586.87 197.623 585.199 198.337C583.565 199.017 581.78 199.357 579.843 199.357C577.374 199.357 575.19 198.898 573.291 197.98C571.392 197.028 569.892 195.651 568.791 193.849C567.727 192.013 567.195 189.837 567.195 187.321V170.746H575.171V186.301C575.171 188.545 575.798 190.279 577.052 191.503C578.305 192.693 580.014 193.288 582.179 193.288C584.382 193.288 586.11 192.693 587.364 191.503C588.617 190.279 589.244 188.545 589.244 186.301V170.746H597.277Z" fill="black"/>
<path d="M554.679 176.611V190.279C554.679 191.231 554.926 191.928 555.419 192.37C555.951 192.778 556.825 192.982 558.04 192.982H561.743V199H556.73C550.007 199 546.645 196.076 546.645 190.228V176.611H542.885V170.746H546.645V163.759H554.679V170.746H561.743V176.611H554.679Z" fill="black"/>
<path d="M504.729 184.771C504.729 181.915 505.356 179.382 506.609 177.172C507.9 174.962 509.629 173.262 511.794 172.072C513.997 170.882 516.446 170.287 519.143 170.287C521.498 170.287 523.549 170.712 525.296 171.562C527.081 172.412 528.506 173.483 529.569 174.775V170.746H537.602V199H529.569V194.869C528.544 196.195 527.119 197.3 525.296 198.184C523.511 199.034 521.441 199.459 519.086 199.459C516.427 199.459 513.997 198.847 511.794 197.623C509.629 196.399 507.9 194.682 506.609 192.472C505.356 190.228 504.729 187.661 504.729 184.771ZM529.569 184.873C529.569 183.139 529.189 181.66 528.43 180.436C527.67 179.178 526.645 178.226 525.353 177.58C524.062 176.9 522.675 176.56 521.194 176.56C519.713 176.56 518.345 176.883 517.092 177.529C515.839 178.175 514.813 179.127 514.016 180.385C513.256 181.609 512.876 183.071 512.876 184.771C512.876 186.471 513.256 187.967 514.016 189.259C514.813 190.517 515.839 191.486 517.092 192.166C518.383 192.846 519.751 193.186 521.194 193.186C522.675 193.186 524.062 192.863 525.353 192.217C526.645 191.537 527.67 190.585 528.43 189.361C529.189 188.103 529.569 186.607 529.569 184.873Z" fill="black"/>
<path d="M493.978 176.611V190.279C493.978 191.231 494.225 191.928 494.719 192.37C495.251 192.778 496.124 192.982 497.34 192.982H501.043V199H496.029C489.307 199 485.945 196.076 485.945 190.228V176.611H482.185V170.746H485.945V163.759H493.978V170.746H501.043V176.611H493.978Z" fill="black"/>
<path d="M465.724 199.459C463.141 199.459 460.824 199.051 458.773 198.235C456.722 197.385 455.089 196.246 453.874 194.818C452.696 193.39 452.05 191.809 451.937 190.075H459.97C460.122 191.163 460.71 192.064 461.736 192.778C462.799 193.492 464.11 193.849 465.667 193.849C467.186 193.849 468.364 193.577 469.199 193.033C470.073 192.489 470.51 191.792 470.51 190.942C470.51 190.024 469.978 189.344 468.914 188.902C467.889 188.426 466.237 187.916 463.958 187.372C461.603 186.862 459.666 186.335 458.147 185.791C456.665 185.247 455.374 184.414 454.272 183.292C453.209 182.17 452.677 180.657 452.677 178.753C452.677 177.189 453.171 175.761 454.158 174.469C455.184 173.177 456.627 172.157 458.488 171.409C460.387 170.661 462.609 170.287 465.154 170.287C468.914 170.287 471.915 171.137 474.156 172.837C476.397 174.503 477.631 176.764 477.859 179.62H470.225C470.111 178.498 469.579 177.614 468.63 176.968C467.718 176.288 466.484 175.948 464.926 175.948C463.483 175.948 462.363 176.186 461.565 176.662C460.805 177.138 460.425 177.801 460.425 178.651C460.425 179.603 460.957 180.334 462.021 180.844C463.084 181.32 464.736 181.813 466.977 182.323C469.256 182.833 471.136 183.36 472.618 183.904C474.099 184.448 475.371 185.298 476.435 186.454C477.536 187.576 478.106 189.072 478.144 190.942C478.144 192.574 477.631 194.036 476.606 195.328C475.618 196.62 474.175 197.64 472.276 198.388C470.415 199.102 468.231 199.459 465.724 199.459Z" fill="black"/>
<path d="M425.013 175.132C426.038 173.636 427.368 172.463 429.001 171.613C430.672 170.763 432.571 170.338 434.698 170.338V177.835H432.59C430.083 177.835 428.184 178.362 426.893 179.416C425.64 180.47 425.013 182.306 425.013 184.924V199H417.037V170.746H425.013V175.132Z" fill="black"/>
<path d="M394.721 199.459C391.682 199.459 388.948 198.864 386.517 197.674C384.086 196.45 382.168 194.733 380.762 192.523C379.395 190.313 378.711 187.763 378.711 184.873C378.711 181.983 379.414 179.433 380.819 177.223C382.263 175.013 384.219 173.313 386.688 172.123C389.156 170.899 391.91 170.287 394.949 170.287C397.987 170.287 400.741 170.899 403.21 172.123C405.679 173.313 407.616 175.013 409.021 177.223C410.464 179.433 411.186 181.983 411.186 184.873C411.186 187.763 410.445 190.313 408.964 192.523C407.521 194.733 405.546 196.45 403.039 197.674C400.57 198.864 397.797 199.459 394.721 199.459ZM394.721 193.237C396.164 193.237 397.512 192.931 398.766 192.319C400.057 191.673 401.083 190.721 401.842 189.463C402.602 188.205 402.982 186.675 402.982 184.873C402.982 182.187 402.184 180.13 400.589 178.702C399.032 177.24 397.114 176.509 394.835 176.509C392.556 176.509 390.638 177.24 389.08 178.702C387.561 180.13 386.802 182.187 386.802 184.873C386.802 187.559 387.542 189.633 389.023 191.095C390.543 192.523 392.442 193.237 394.721 193.237Z" fill="black"/>
<path d="M375.536 176.611H370.01V199H361.92V176.611H358.331V170.746H361.92V169.318C361.92 165.85 363.021 163.3 365.224 161.668C367.427 160.036 370.751 159.271 375.194 159.373V165.391C373.257 165.357 371.909 165.646 371.149 166.258C370.39 166.87 370.01 167.975 370.01 169.573V170.746H375.536V176.611Z" fill="black"/>
<path d="M321.24 170.287C323.595 170.287 325.665 170.712 327.45 171.562C329.235 172.378 330.641 173.449 331.666 174.775V170.746H339.699V199.204C339.699 201.822 339.111 204.151 337.933 206.191C336.756 208.265 334.99 209.897 332.635 211.087C330.28 212.311 327.431 212.923 324.089 212.923C319.607 212.923 315.923 211.988 313.036 210.118C310.188 208.248 308.573 205.698 308.194 202.468H316.113C316.531 203.76 317.423 204.78 318.79 205.528C320.196 206.31 321.886 206.701 323.861 206.701C326.178 206.701 328.058 206.072 329.501 204.814C330.945 203.59 331.666 201.72 331.666 199.204V194.818C330.641 196.144 329.216 197.249 327.393 198.133C325.608 199.017 323.557 199.459 321.24 199.459C318.582 199.459 316.151 198.847 313.948 197.623C311.745 196.399 309.998 194.682 308.706 192.472C307.453 190.228 306.826 187.661 306.826 184.771C306.826 181.915 307.453 179.382 308.706 177.172C309.998 174.962 311.726 173.262 313.891 172.072C316.094 170.882 318.544 170.287 321.24 170.287ZM331.666 184.873C331.666 183.139 331.286 181.66 330.527 180.436C329.767 179.178 328.742 178.226 327.45 177.58C326.159 176.9 324.773 176.56 323.291 176.56C321.81 176.56 320.443 176.883 319.189 177.529C317.936 178.175 316.91 179.127 316.113 180.385C315.353 181.609 314.973 183.071 314.973 184.771C314.973 186.471 315.353 187.967 316.113 189.259C316.91 190.517 317.936 191.486 319.189 192.166C320.481 192.846 321.848 193.186 323.291 193.186C324.773 193.186 326.159 192.863 327.45 192.217C328.742 191.537 329.767 190.585 330.527 189.361C331.286 188.103 331.666 186.607 331.666 184.873Z" fill="black"/>
<path d="M288.702 170.338C292.462 170.338 295.5 171.409 297.817 173.551C300.134 175.659 301.293 178.617 301.293 182.425V199H293.316V183.394C293.316 181.15 292.69 179.433 291.436 178.243C290.183 177.019 288.474 176.407 286.309 176.407C284.106 176.407 282.359 177.019 281.067 178.243C279.814 179.433 279.187 181.15 279.187 183.394V199H271.211V170.746H279.187V174.265C280.251 173.041 281.599 172.089 283.232 171.409C284.903 170.695 286.727 170.338 288.702 170.338Z" fill="black"/>
<path d="M259.399 167.38C257.993 167.38 256.816 166.989 255.866 166.207C254.955 165.391 254.499 164.388 254.499 163.198C254.499 162.008 254.955 161.022 255.866 160.24C256.816 159.424 257.993 159.016 259.399 159.016C260.804 159.016 261.962 159.424 262.874 160.24C263.824 161.022 264.298 162.008 264.298 163.198C264.298 164.388 263.824 165.391 262.874 166.207C261.962 166.989 260.804 167.38 259.399 167.38ZM263.33 170.746V199H255.354V170.746H263.33Z" fill="black"/>
<path d="M235.463 170.338C237.856 170.338 239.983 170.814 241.844 171.766C243.705 172.684 245.148 174.061 246.174 175.897C247.237 177.699 247.769 179.875 247.769 182.425V199H239.793V183.394C239.793 181.15 239.166 179.433 237.913 178.243C236.659 177.019 234.95 176.407 232.785 176.407C230.582 176.407 228.835 177.019 227.544 178.243C226.29 179.433 225.664 181.15 225.664 183.394V199H217.688V161.26H225.664V174.265C226.689 173.041 228.057 172.089 229.766 171.409C231.475 170.695 233.374 170.338 235.463 170.338Z" fill="black"/>
<path d="M181.364 184.873C181.364 181.949 182.028 179.399 183.358 177.223C184.687 175.013 186.529 173.313 188.884 172.123C191.239 170.899 193.936 170.287 196.974 170.287C200.886 170.287 204.115 171.171 206.66 172.939C209.242 174.673 210.971 177.121 211.844 180.283H203.241C202.786 179.059 202.007 178.107 200.905 177.427C199.842 176.713 198.513 176.356 196.917 176.356C194.638 176.356 192.834 177.104 191.505 178.6C190.176 180.062 189.511 182.153 189.511 184.873C189.511 187.559 190.176 189.65 191.505 191.146C192.834 192.608 194.638 193.339 196.917 193.339C200.146 193.339 202.254 192.047 203.241 189.463H211.844C210.971 192.523 209.242 194.954 206.66 196.756C204.077 198.558 200.848 199.459 196.974 199.459C193.936 199.459 191.239 198.864 188.884 197.674C186.529 196.45 184.687 194.75 183.358 192.574C182.028 190.364 181.364 187.797 181.364 184.873Z" fill="black"/>
<path d="M170.613 176.611V190.279C170.613 191.231 170.86 191.928 171.354 192.37C171.886 192.778 172.759 192.982 173.975 192.982H177.678V199H172.664C165.941 199 162.58 196.076 162.58 190.228V176.611H158.82V170.746H162.58V163.759H170.613V170.746H177.678V176.611H170.613Z" fill="black"/>
<path d="M149.515 167.38C148.11 167.38 146.932 166.989 145.983 166.207C145.071 165.391 144.615 164.388 144.615 163.198C144.615 162.008 145.071 161.022 145.983 160.24C146.932 159.424 148.11 159.016 149.515 159.016C150.92 159.016 152.079 159.424 152.99 160.24C153.94 161.022 154.415 162.008 154.415 163.198C154.415 164.388 153.94 165.391 152.99 166.207C152.079 166.989 150.92 167.38 149.515 167.38ZM153.446 170.746V199H145.47V170.746H153.446Z" fill="black"/>
<path d="M139.807 174.418C139.807 176.322 139.295 178.107 138.269 179.773C137.281 181.439 135.705 182.782 133.54 183.802C131.413 184.822 128.717 185.332 125.45 185.332H118.784V199H110.808V163.402H125.45C128.527 163.402 131.147 163.878 133.312 164.83C135.477 165.782 137.092 167.091 138.155 168.757C139.257 170.423 139.807 172.31 139.807 174.418ZM125.108 179.569C127.311 179.569 128.944 179.127 130.008 178.243C131.071 177.325 131.603 176.05 131.603 174.418C131.603 170.95 129.438 169.216 125.108 169.216H118.784V179.569H125.108Z" fill="black"/>
<path d="M80.8342 192.217H64.9958L62.375 199H54L68.3002 163.351H77.5867L91.8869 199H83.4549L80.8342 192.217ZM78.6692 186.505L72.915 171.613L67.1607 186.505H78.6692Z" fill="black"/>
</svg>
