<svg width="825" height="134" viewBox="0 0 825 134" fill="none" xmlns="http://www.w3.org/2000/svg">
<path d="M312.148 88.8363C312.148 80.3243 313.82 72.775 317.164 66.1883C320.61 59.6017 325.22 54.535 330.996 50.9883C336.874 47.4417 343.41 45.6683 350.604 45.6683C356.887 45.6683 362.359 46.935 367.02 49.4683C371.783 52.0017 375.583 55.1937 378.42 59.0443V47.0363H399.852V131.244H378.42V118.932C375.684 122.884 371.884 126.178 367.02 128.812C362.258 131.346 356.735 132.612 350.452 132.612C343.359 132.612 336.874 130.788 330.996 127.14C325.22 123.492 320.61 118.375 317.164 111.788C313.82 105.1 312.148 97.4497 312.148 88.8363ZM378.42 89.1403C378.42 83.9723 377.407 79.5643 375.38 75.9163C373.354 72.167 370.618 69.3297 367.172 67.4043C363.727 65.3777 360.028 64.3643 356.076 64.3643C352.124 64.3643 348.476 65.327 345.132 67.2523C341.788 69.1777 339.052 72.015 336.924 75.7643C334.898 79.4123 333.884 83.7697 333.884 88.8363C333.884 93.903 334.898 98.3617 336.924 102.212C339.052 105.962 341.788 108.85 345.132 110.876C348.578 112.903 352.226 113.916 356.076 113.916C360.028 113.916 363.727 112.954 367.172 111.028C370.618 109.002 373.354 106.164 375.38 102.516C377.407 98.767 378.42 94.3083 378.42 89.1403Z" fill="black"/>
<path d="M302.088 87.3163C302.088 90.3563 301.885 93.0923 301.48 95.5243H239.92C240.427 101.604 242.555 106.367 246.304 109.812C250.053 113.258 254.664 114.98 260.136 114.98C268.04 114.98 273.664 111.586 277.008 104.796H299.96C297.528 112.903 292.867 119.591 285.976 124.86C279.085 130.028 270.624 132.612 260.592 132.612C252.485 132.612 245.189 130.839 238.704 127.292C232.32 123.644 227.304 118.527 223.656 111.94C220.109 105.354 218.336 97.7537 218.336 89.1403C218.336 80.4257 220.109 72.775 223.656 66.1883C227.203 59.6017 232.168 54.535 238.552 50.9883C244.936 47.4417 252.283 45.6683 260.592 45.6683C268.597 45.6683 275.741 47.391 282.024 50.8363C288.408 54.2817 293.323 59.1963 296.768 65.5803C300.315 71.863 302.088 79.1083 302.088 87.3163ZM280.048 81.2363C279.947 75.7643 277.971 71.407 274.12 68.1643C270.269 64.8203 265.557 63.1483 259.984 63.1483C254.715 63.1483 250.256 64.7697 246.608 68.0123C243.061 71.1537 240.883 75.5617 240.072 81.2363H280.048Z" fill="black"/>
<path d="M115.32 88.8363C115.32 80.3243 116.992 72.775 120.336 66.1883C123.782 59.6017 128.443 54.535 134.32 50.9883C140.198 47.4417 146.734 45.6683 153.928 45.6683C159.4 45.6683 164.619 46.8843 169.584 49.3163C174.55 51.647 178.502 54.7883 181.44 58.7403V18.7643H203.024V131.244H181.44V118.78C178.806 122.935 175.107 126.279 170.344 128.812C165.582 131.346 160.059 132.612 153.776 132.612C146.683 132.612 140.198 130.788 134.32 127.14C128.443 123.492 123.782 118.375 120.336 111.788C116.992 105.1 115.32 97.4497 115.32 88.8363ZM181.592 89.1403C181.592 83.9723 180.579 79.5643 178.552 75.9163C176.526 72.167 173.79 69.3297 170.344 67.4043C166.899 65.3777 163.2 64.3643 159.248 64.3643C155.296 64.3643 151.648 65.327 148.304 67.2523C144.96 69.1777 142.224 72.015 140.096 75.7643C138.07 79.4123 137.056 83.7697 137.056 88.8363C137.056 93.903 138.07 98.3617 140.096 102.212C142.224 105.962 144.96 108.85 148.304 110.876C151.75 112.903 155.398 113.916 159.248 113.916C163.2 113.916 166.899 112.954 170.344 111.028C173.79 109.002 176.526 106.164 178.552 102.516C180.579 98.767 181.592 94.3083 181.592 89.1403Z" fill="black"/>
<path d="M99.7678 47.0363V131.244H78.4878V47.0363H99.7678Z" fill="black"/>
<path fill-rule="evenodd" clip-rule="evenodd" d="M100.005 28.7087C97.0248 25.8832 93.2587 22.6224 88.6721 18.7946C86.552 17.0252 86.2444 13.876 87.9998 11.7444C89.7553 9.61273 92.9091 9.30594 95.0294 11.075C99.708 14.9787 103.679 18.4123 106.885 21.4519C110.859 25.2198 114.028 28.7189 115.833 32.0487C117.751 35.587 118.494 39.7188 116.114 43.6527C114.9 45.6591 113.062 47.2454 110.937 48.5594C108.588 50.0117 105.598 48.7781 104.5 46.2444C103.402 43.7106 104.741 40.988 106.861 39.2178C107.247 38.8952 107.456 38.6445 107.558 38.4767C107.609 38.3914 107.609 38.3822 107.605 38.3312C107.605 38.3264 107.604 38.3213 107.604 38.3156C107.595 38.1631 107.519 37.6946 107.042 36.815C106.035 34.9573 103.859 32.3627 100.005 28.7087ZM57.2258 34.1998C57.6741 33.2885 58.2288 32.4195 58.8247 31.6187C60.4732 29.4034 63.6913 29.6576 65.4998 31.7444L67.3868 33.9217C68.1532 34.8059 68.045 36.1377 67.2899 37.0317C66.8813 37.5155 67.0283 38.2309 67.5634 38.5695C68.5002 39.1622 69.4175 39.7261 70.2625 40.2357C72.2697 41.4463 73.0053 44.0346 71.867 46.0836L71.4999 46.7444C70.1589 49.1583 67.1175 50.024 64.7562 48.5922C63.1928 47.6442 61.4305 46.5407 59.7263 45.4046C57.6543 44.0232 56.3621 41.9565 56.1227 39.5463C55.9109 37.4128 56.5738 35.5253 57.2258 34.1998Z" fill="black"/>
<rect x="81.0981" width="17" height="38.3234" transform="rotate(40.9125 81.0981 0)" fill="#FF0B0B"/>
<rect width="12.6508" height="13.5358" transform="matrix(-0.755711 -0.654905 -0.654905 0.755711 42 77.2443)" fill="#1885C2"/>
<rect x="11.4912" y="28.2443" width="16.3993" height="17.5464" transform="rotate(40.9125 11.4912 28.2443)" fill="#FF0B0B"/>
<path d="M806.082 65.1324V105.868C806.082 108.706 806.741 110.783 808.058 112.1C809.477 113.316 811.808 113.924 815.05 113.924H824.93V131.86H811.554C793.618 131.86 784.65 123.146 784.65 105.716V65.1324H774.618V47.6524H784.65V26.8284H806.082V47.6524H824.93V65.1324H806.082Z" fill="black"/>
<path d="M672.819 89.4524C672.819 80.9404 674.491 73.391 677.835 66.8044C681.28 60.2177 685.891 55.151 691.667 51.6044C697.544 48.0577 704.08 46.2844 711.275 46.2844C717.558 46.2844 723.03 47.551 727.691 50.0844C732.454 52.6177 736.254 55.8097 739.091 59.6604V47.6524H760.523V131.86H739.091V119.548C736.355 123.5 732.555 126.794 727.691 129.428C722.928 131.962 717.406 133.228 711.123 133.228C704.03 133.228 697.544 131.404 691.667 127.756C685.891 124.108 681.28 118.991 677.835 112.404C674.491 105.716 672.819 98.0657 672.819 89.4524ZM739.091 89.7564C739.091 84.5884 738.078 80.1804 736.051 76.5324C734.024 72.783 731.288 69.9457 727.843 68.0204C724.398 65.9937 720.699 64.9804 716.747 64.9804C712.795 64.9804 709.147 65.943 705.803 67.8684C702.459 69.7937 699.723 72.631 697.595 76.3804C695.568 80.0284 694.555 84.3857 694.555 89.4524C694.555 94.519 695.568 98.9777 697.595 102.828C699.723 106.578 702.459 109.466 705.803 111.492C709.248 113.519 712.896 114.532 716.747 114.532C720.699 114.532 724.398 113.57 727.843 111.644C731.288 109.618 734.024 106.78 736.051 103.132C738.078 99.383 739.091 94.9244 739.091 89.7564Z" fill="black"/>
<path d="M644.137 65.1324V105.868C644.137 108.706 644.796 110.783 646.113 112.1C647.532 113.316 649.862 113.924 653.105 113.924H662.985V131.86H649.609C631.673 131.86 622.705 123.146 622.705 105.716V65.1324H612.673V47.6524H622.705V26.8284H644.137V47.6524H662.985V65.1324H644.137Z" fill="black"/>
<path d="M563.368 132.924C555.971 132.924 549.283 131.658 543.304 129.124C537.427 126.591 532.765 122.943 529.32 118.18C525.875 113.418 524.101 107.794 524 101.308H546.8C547.104 105.666 548.624 109.111 551.36 111.644C554.197 114.178 558.048 115.444 562.912 115.444C567.877 115.444 571.779 114.279 574.616 111.948C577.453 109.516 578.872 106.375 578.872 102.524C578.872 99.383 577.909 96.799 575.984 94.7723C574.059 92.7457 571.627 91.175 568.688 90.0603C565.851 88.8443 561.899 87.527 556.832 86.1083C549.941 84.0817 544.317 82.1057 539.96 80.1803C535.704 78.1537 532.005 75.1643 528.864 71.2123C525.824 67.159 524.304 61.7883 524.304 55.1003C524.304 48.8177 525.875 43.3457 529.016 38.6843C532.157 34.023 536.565 30.4763 542.24 28.0443C547.915 25.511 554.4 24.2443 561.696 24.2443C572.64 24.2443 581.507 26.9297 588.296 32.3003C595.187 37.5697 598.987 44.967 599.696 54.4923H576.288C576.085 50.8443 574.515 47.855 571.576 45.5243C568.739 43.0923 564.939 41.8763 560.176 41.8763C556.021 41.8763 552.677 42.9403 550.144 45.0683C547.712 47.1963 546.496 50.287 546.496 54.3403C546.496 57.1777 547.408 59.559 549.232 61.4843C551.157 63.3083 553.488 64.8283 556.224 66.0443C559.061 67.159 563.013 68.4763 568.08 69.9963C574.971 72.023 580.595 74.0497 584.952 76.0763C589.309 78.103 593.059 81.143 596.2 85.1963C599.341 89.2497 600.912 94.5697 600.912 101.156C600.912 106.831 599.443 112.1 596.504 116.964C593.565 121.828 589.259 125.73 583.584 128.668C577.909 131.506 571.171 132.924 563.368 132.924Z" fill="black"/>
<path fill-rule="evenodd" clip-rule="evenodd" d="M462.333 52.2443L482.333 72.2443H498V83.3554H482.444L462.383 103.417L454.526 95.5602L472.231 77.8554L454.477 60.1011L462.333 52.2443ZM464.393 77.8554L458.893 83.3554H437V72.2443H458.782L464.393 77.8554Z" fill="#FA8484"/>
</svg>
