<svg width="118" height="132" viewBox="0 0 118 132" fill="none" xmlns="http://www.w3.org/2000/svg">
<path d="M99.7678 47.0364V131.244H78.4878V47.0364H99.7678Z" fill="black"/>
<path fill-rule="evenodd" clip-rule="evenodd" d="M100.005 28.7087C97.0248 25.8832 93.2588 22.6224 88.6722 18.7946C86.5521 17.0252 86.2444 13.876 87.9999 11.7444C89.7553 9.61273 92.9091 9.30594 95.0294 11.075C99.708 14.9787 103.679 18.4123 106.885 21.4519C110.859 25.2198 114.028 28.7189 115.833 32.0487C117.751 35.587 118.494 39.7188 116.114 43.6527C114.9 45.6591 113.062 47.2454 110.937 48.5594C108.588 50.0117 105.598 48.7781 104.5 46.2444C103.402 43.7106 104.741 40.988 106.861 39.2178C107.247 38.8952 107.456 38.6445 107.558 38.4767C107.609 38.3914 107.609 38.3822 107.605 38.3312C107.605 38.3264 107.604 38.3213 107.604 38.3156C107.595 38.1631 107.519 37.6946 107.042 36.815C106.035 34.9573 103.859 32.3627 100.005 28.7087ZM57.2258 34.1998C57.6742 33.2885 58.2288 32.4195 58.8247 31.6187C60.4733 29.4034 63.6913 29.6576 65.4999 31.7444L67.3869 33.9217C68.1533 34.8059 68.045 36.1377 67.2899 37.0317C66.8813 37.5155 67.0283 38.2309 67.5635 38.5695C68.5002 39.1622 69.4175 39.7261 70.2626 40.2357C72.2698 41.4463 73.0053 44.0346 71.867 46.0836L71.5 46.7444C70.1589 49.1583 67.1175 50.024 64.7563 48.5922C63.1928 47.6442 61.4305 46.5407 59.7264 45.4046C57.6543 44.0232 56.3621 41.9565 56.1228 39.5463C55.9109 37.4128 56.5738 35.5253 57.2258 34.1998Z" fill="black"/>
<path d="M81.0982 0L93.9453 11.1334L68.8471 40.0948L56 28.9614L81.0982 0Z" fill="#FF0B0B"/>
<path d="M42 77.2444L32.4397 68.9593L23.575 79.1884L33.1354 87.4735L42 77.2444Z" fill="#1885C2"/>
<path d="M11.4913 28.2443L23.8844 38.9843L12.3931 52.2443L0 41.5044L11.4913 28.2443Z" fill="#FF0B0B"/>
</svg>
